PathFileType	4	(X/Y/Z)	/Users/visionmauri/Downloads/Videos/OAW06-top_Sports2D/OAW06-top_Sports2D_m_person00.trc
DataRate	CameraRate	NumFrames	NumMarkers	Units	OrigDataRate	OrigDataStartFrame	OrigNumFrames
30.0	30.0	9	22	m	30.0	762	1524
Frame#	Time	Hip			RHip			RKnee			RAnkle			RBigToe			RSmallToe			RHeel			LHip			LKnee			LAnkle			LBigToe			LSmallToe			LHeel			Neck			Head			Nose			RShoulder			RElbow			RWrist			LShoulder			LElbow			LWrist			
		X1	Y1	Z1	X2	Y2	Z2	X3	Y3	Z3	X4	Y4	Z4	X5	Y5	Z5	X6	Y6	Z6	X7	Y7	Z7	X8	Y8	Z8	X9	Y9	Z9	X10	Y10	Z10	X11	Y11	Z11	X12	Y12	Z12	X13	Y13	Z13	X14	Y14	Z14	X15	Y15	Z15	X16	Y16	Z16	X17	Y17	Z17	X18	Y18	Z18	X19	Y19	Z19	X20	Y20	Z20	X21	Y21	Z21	X22	Y22	Z22
894	29.814016933207906	4.897242851362568	0.3973247430502947	0.0301	4.891575417004435	0.39234080886393075	0.0301	4.776071538234033	0.3771113107123812	0.129	4.685041036469297	0.32674299388420563	0.023	4.6456383589716035	0.34830117939274335	0.2179	4.650556333584389	0.3527264095522235	0.1804	4.675167270420596	0.3064207778155294	-0.0119	4.8880578175029745	0.39533976460825215	0.0301	4.771778619157285	0.37699766298044207	0.129	4.681022494571044	0.32229703662181874	0.023	4.6413383384207645	0.34829752079947884	0.2179	4.641215963900251	0.3425958630762467	0.1804	4.6691670894448185	0.30485431808147767	-0.0119	5.017442310174205	0.4820786992405261	0.0008	5.035734659003606	0.5237474313967424	0.0655	5.00456763802112	0.5109935989520705	0.1076	5.011082743796336	0.4609658530676003	-0.01275	4.942367895278205	0.41217066282489817	0.0702	4.87324568644168	0.42280470277442134	0.1076	5.009096166223649	0.473273824302834	-0.01275	4.934441368242937	0.4257359724384744	0.0702	4.859462296115196	0.4298667824601144	0.1076
895	29.847365945437446	4.8960912873097335	0.39680346546524214	0.0301	4.890411671378864	0.39175516885971423	0.0301	4.7752312637811025	0.3739528422978225	0.129	4.685209332344925	0.3229358106919938	0.023	4.645730801228182	0.346138270270859	0.2179	4.650627373936745	0.3524578300634163	0.1804	4.6761274993851325	0.304342201859437	-0.0119	4.888506769806573	0.39368082214266764	0.0301	4.771584634104145	0.37514969320063934	0.129	4.682042896085167	0.3195447878571831	0.023	4.641316649645645	0.35203964578310964	0.2179	4.641321381471099	0.34434607605923667	0.1804	4.6688640692818835	0.3036745115805444	-0.0119	5.017467204888102	0.48184514705451387	0.0008	5.0351842049671545	0.5214573421254721	0.0655	5.002998491113374	0.508507948365205	0.1076	5.011311791689593	0.4626290064469317	-0.01275	4.938574160076659	0.4161856567192391	0.0702	4.870944461348256	0.4298004853550586	0.1076	5.010252937418594	0.4722044185281817	-0.01275	4.938209263649714	0.42024867771931884	0.0702	4.863720761446503	0.4244239344112484	0.1076
896	29.880714957666985	4.893938832768996	0.395729303083029	0.0301	4.888044388792005	0.39174240992564885	0.0301	4.774911832942533	0.3704529369636668	0.129	4.686482425440553	0.3196833880845346	0.023	4.645338060939497	0.3456081925912745	0.2179	4.651369522315649	0.3512886172685603	0.1804	4.677512982439168	0.3027998493319878	-0.0119	4.887975506494056	0.3912614375875792	0.0301	4.7715780432863	0.3724001241614205	0.129	4.684090717575486	0.316020668273218	0.023	4.6416507918196475	0.35284493447638876	0.2179	4.642404945415306	0.3436804672301265	0.1804	4.6702517407202375	0.30106602097923885	-0.0119	5.018223387642788	0.4820386699947641	0.0008	5.03623483039817	0.5209830557668084	0.0655	5.002863466785435	0.5073494500582812	0.1076	5.011037445972398	0.4657917808320855	-0.01275	4.932415641044443	0.42518890173349677	0.0702	4.867769663708332	0.438012066227573	0.1076	5.011333470608561	0.46988609263226816	-0.01275	4.940120870049847	0.41522848507097876	0.0702	4.865636899429223	0.41874893222020465	0.1076
897	29.914063969896524	4.890801897639129	0.39431591799733096	0.0301	4.88367698692043	0.39315096048974285	0.0301	4.7750908708346	0.3688229463442435	0.129	4.688033589985003	0.3187560811470921	0.023	4.645636500157512	0.3465170532608804	0.2179	4.652157849510012	0.35047336410911617	0.1804	4.678585915468453	0.30219729372941945	-0.0119	4.885786640863845	0.38879636329892747	0.0301	4.772058518812144	0.36928164146758047	0.129	4.687178144963644	0.3117059526690986	0.023	4.6421581983321465	0.35343731980624954	0.2179	4.643522082424371	0.3435595063630002	0.1804	4.673967324763891	0.296916239917557	-0.0119	5.019550046345692	0.48265327481851844	0.0008	5.040335983049812	0.5230814260407649	0.0655	5.005580052834587	0.5083278704748175	0.1076	5.008969101875945	0.4700844710023404	-0.01275	4.926517939865965	0.4349077310873152	0.0702	4.864963208260154	0.4439307070877876	0.1076	5.012930481181342	0.4660219315990059	-0.01275	4.940496963909762	0.4107966913117345	0.0702	4.8662024785040705	0.41302885086734675	0.1076
898	29.947412982126064	4.887365272026217	0.3933260231088181	0.0301	4.87890600450502	0.3952996869322523	0.0301	4.775144249869765	0.36921200739316784	0.129	4.688189255670798	0.32127399535625495	0.023	4.646221230091098	0.3477751528356779	0.2179	4.651895096219865	0.3513808536385938	0.1804	4.678388154987148	0.3041779285351816	-0.0119	4.882863838272911	0.38699008809658025	0.0301	4.772973094954902	0.3658433970012618	0.129	4.690716665960875	0.3069812897074834	0.023	4.642126517648914	0.35485929652563764	0.2179	4.643600752517676	0.34445117866742775	0.1804	4.678332763974593	0.29184813502721746	-0.0119	5.02062230418848	0.4831606185135554	0.0008	5.046368086037807	0.5254553561262989	0.0655	5.009789349359727	0.5104820603266879	0.1076	5.005867004657189	0.47414442070011603	-0.01275	4.923533542379777	0.44007138147503133	0.0702	4.863773374632496	0.44624557160733147	0.1076	5.01444513130445	0.461603071033857	-0.01275	4.940327794557709	0.40669491231827165	0.0702	4.866103797847603	0.40671375923713654	0.1076
899	29.9807619943556	4.884874192378063	0.39349480059542535	0.0301	4.8759056506570815	0.3980391266183026	0.0301	4.774582469032366	0.37077243888903155	0.129	4.686297181960462	0.3268545891463887	0.023	4.6458788180757535	0.34937534560976025	0.2179	4.6501713771116915	0.353977233003757	0.1804	4.676275530317044	0.31021970479798666	-0.0119	4.880970151952057	0.3861126312194787	0.0301	4.774203726944202	0.361744063598325	0.129	4.694211399624526	0.3014441793848447	0.023	4.64273852465347	0.3535853844348071	0.2179	4.643718774900021	0.34358209844911225	0.1804	4.6819003539585	0.2856935013328005	-0.0119	5.020956218251241	0.4832489326637968	0.0008	5.051857574930319	0.5259235929529336	0.0655	5.013669996249398	0.5126436330175146	0.1076	5.002791724724703	0.4777058228499242	-0.01275	4.922718845868315	0.44145211771936727	0.0702	4.863650406363337	0.446560421943228	0.1076	5.015377221430974	0.45808068851656897	-0.01275	4.940732582937093	0.40301723181185883	0.0702	4.865874067984121	0.4001869106996716	0.1076
900	30.01411100658514	4.883702972571142	0.39417561519203015	0.0301	4.874461725493466	0.40161053947557995	0.0301	4.773397505527361	0.3731588942519724	0.129	4.684089771127392	0.3318233707232973	0.023	4.644397632180117	0.35103223043283444	0.2179	4.648169987797276	0.3561799441180488	0.1804	4.67342810108604	0.317501810640513	-0.0119	4.880749297854182	0.38562206727896337	0.0301	4.775878291436254	0.3571615277456882	0.129	4.697420637956379	0.29504328073023023	0.023	4.6466173131411175	0.3433907815648705	0.2179	4.646704163297183	0.33565285029804154	0.1804	4.6848862893671	0.2789396933082701	-0.0119	5.020637336610812	0.4831365763507441	0.0008	5.055502846850392	0.5253065580485741	0.0655	5.016288199587827	0.514268922543818	0.1076	4.9995637070298145	0.48126420918300705	-0.01275	4.9224777252881395	0.4422866893103746	0.0702	4.86410134167213	0.4458260466570808	0.1076	5.016018127158999	0.45575082360204633	-0.01275	4.94236967467172	0.39997060798054357	0.0702	4.866734329680122	0.39451016499873115	0.1076
901	30.04746001881468	4.883318923390987	0.39429623849683676	0.0301	4.8735714048025365	0.40509725140313196	0.0301	4.772103405733624	0.3754625360585764	0.129	4.683427169273036	0.3333104748529459	0.023	4.642947915052907	0.35197380370799275	0.2179	4.647823036196205	0.356099900369044	0.1804	4.671918806714123	0.321294566071434	-0.0119	4.881979763312888	0.38433459512280055	0.0301	4.778030434626387	0.35257072427009434	0.129	4.699938048533871	0.2893594082335043	0.023	4.653419987318499	0.32483864112808053	0.2179	4.653328926020887	0.3187417915556389	0.1804	4.687979949809834	0.2731667082129854	-0.0119	5.019655796019353	0.4828836708186893	0.0008	5.057131771353954	0.5254382579889151	0.0655	5.01694244404666	0.5146515757151024	0.1076	4.995973338732275	0.48495464572076874	-0.01275	4.922263720100654	0.44369123478508565	0.0702	4.864766266778471	0.44458339130572805	0.1076	5.016817473064582	0.45366383434258317	-0.01275	4.944792812929788	0.3973373670101425	0.0702	4.8688521077325095	0.39002924614245005	0.1076
902	30.080809031044218	4.8837650897627425	0.39409549829576607	0.0301	4.873751564327007	0.40725723865453517	0.0301	4.77168275081316	0.37629104685295967	0.129	4.68441670342134	0.33265950219687346	0.023	4.642903534665411	0.3524547990017083	0.2179	4.649280050561023	0.3546630365487644	0.1804	4.672144679222209	0.32095854667194096	-0.0119	4.884646186836625	0.3819737808804693	0.0301	4.780591226229205	0.3482670876087279	0.129	4.701641622771622	0.28572479240633514	0.023	4.659158246322286	0.3087720694376147	0.2179	4.660336523863736	0.3007369078838893	0.1804	4.6912249393377605	0.2688580726412164	-0.0119	5.01873314565138	0.4826173206802892	0.0008	5.057377009252921	0.5262939821970921	0.0655	5.016004987776345	0.5136889660616194	0.1076	4.993321979787816	0.4885700696670417	-0.01275	4.921822582259449	0.44604800915804654	0.0702	4.86498439836061	0.4441569789016303	0.1076	5.017913236047502	0.45125989280466267	-0.01275	4.947020661549044	0.3947858943933443	0.0702	4.8705484908040395	0.3863149325234093	0.1076
